<?xml version="1.0"?>
<svg xmlns="http://www.w3.org/2000/svg" xmlns:xlink="http://www.w3.org/1999/xlink" version="1.1" id="Capa_1" x="0px" y="0px" viewBox="0 0 512 512" style="enable-background:new 0 0 512 512;" xml:space="preserve" width="512px" height="512px" class=""><g><path style="fill:#E19600" d="M476.69,141.241H35.31c-19.5,0-35.31,15.81-35.31,35.31v264.828c0,19.5,15.81,35.31,35.31,35.31  H476.69c19.5,0,35.31-15.81,35.31-35.31V176.552C512,157.052,496.19,141.241,476.69,141.241z M176.552,344.276  c-19.5,0-35.31-15.81-35.31-35.31c0-19.5,15.81-35.31,35.31-35.31s35.31,15.81,35.31,35.31  C211.862,328.466,196.052,344.276,176.552,344.276z M353.103,308.966h-35.31l0,0H353.103L353.103,308.966L353.103,308.966z" class=""/><path style="fill:#D28700" d="M476.69,88.276H274.891c-11.811,0.009-22.846-5.888-29.396-15.713l-14.301-21.539  c-6.55-9.825-17.585-15.722-29.396-15.713H35.31C15.81,35.31,0,51.121,0,70.621v105.931c0-19.5,15.81-35.31,35.31-35.31H476.69  c19.5,0,35.31,15.81,35.31,35.31v-52.966C512,104.086,496.19,88.276,476.69,88.276z" class=""/><circle style="fill:#E19600" cx="176.552" cy="308.966" r="35.31" class=""/><path style="fill:#E19600" d="M370.759,300.138h-8.828v-17.655c0-4.873-3.955-8.828-8.828-8.828c-4.873,0-8.828,3.955-8.828,8.828  v17.655h-17.655v-17.655c0-4.873-3.955-8.828-8.828-8.828c-4.873,0-8.828,3.955-8.828,8.828v17.655H220.69  c-0.3,0.044-0.591,0.097-0.883,0.177c-4.776-23.905-28.028-39.406-51.933-34.631s-39.406,28.028-34.631,51.933  c4.776,23.905,28.028,39.406,51.933,34.631c17.479-3.496,31.135-17.152,34.631-34.631c0.291,0.079,0.583,0.132,0.883,0.177h150.069  c4.873,0,8.828-3.955,8.828-8.828S375.631,300.138,370.759,300.138z M176.552,335.448c-14.627,0-26.483-11.855-26.483-26.483  s11.855-26.483,26.483-26.483s26.483,11.855,26.483,26.483S191.179,335.448,176.552,335.448z" class="active-path" /></g> </svg>
